<?xml version="1.0" encoding="utf-8"?>
<!-- Generator: Adobe Illustrator 27.8.1, SVG Export Plug-In . SVG Version: 6.00 Build 0)  -->
<svg version="1.1" id="Layer_1" xmlns="http://www.w3.org/2000/svg" xmlns:xlink="http://www.w3.org/1999/xlink" x="0px" y="0px"
	 viewBox="0 0 500 64" style="enable-background:new 0 0 500 64;" xml:space="preserve">
<g>
	<path d="M0,0.8h11.3l9.1,46.3l9.9-46.3h10.4l9.7,46.1l8.9-46.1h10.9L56.3,63.2H44.1l-8.8-40.3l-9,40.3H13.9L0,0.8z"/>
	<path d="M100.6,64c-11.9,0-23.9-12.8-23.9-32S88.7,0,100.6,0c11.9,0,23.9,12.8,23.9,32S112.5,64,100.6,64z M100.6,53.9
		c6.1,0,12.7-8.2,12.7-21.9c0-13.6-6.7-21.9-12.7-21.9c-6.1,0-12.7,8.2-12.7,21.9C87.9,45.6,94.6,53.9,100.6,53.9z"/>
	<path d="M157.8,64c-11.9,0-23.9-12.8-23.9-32S146,0,157.8,0c11.9,0,23.9,12.8,23.9,32S169.7,64,157.8,64z M157.8,53.9
		c6.1,0,12.7-8.2,12.7-21.9c0-13.6-6.7-21.9-12.7-21.9c-6.1,0-12.7,8.2-12.7,21.9C145.1,45.6,151.8,53.9,157.8,53.9z"/>
	<path d="M195.8,0.8h10.8v52.4h24.2v10h-35V0.8z"/>
	<path d="M243.4,0.8h10.8v52.4h24.2v10h-35V0.8z"/>
	<path d="M307,36.2v27h-10.8v-27L277.5,0.8h12.2l12.1,25.1l11.9-25.1h11.9L307,36.2z"/>
	<path d="M358.2,0.8H369v52.4h24.2v10h-35V0.8z"/>
	<path d="M428.3,0.8l19.2,62.3h-11.3l-4.3-15h-19.2l-4.2,15h-11.1l19.2-62.3H428.3z M429.1,38.7l-6.9-24l-6.8,24H429.1z"/>
	<path d="M483.6,63.2h-25.1V0.8H482c8.4,1.4,15.5,8.7,15.5,16.8c0,5.2-2.7,9.6-6.6,12.5c5.2,3.1,9.1,8.4,9.1,15
		C500,54,492.6,61.5,483.6,63.2z M486.5,18.5c0-3.8-2.5-6.7-6.2-7.6h-11v15.3h11C484,25.3,486.5,22.3,486.5,18.5z M469.3,35.4v17.8
		h12.6c4.5-1.1,7.1-4.3,7.1-8.9c0-4.6-2.6-7.8-7.1-8.9H469.3z"/>
</g>
</svg>
